<?xml version="1.0" encoding="UTF-8"?>
<svg id="Layer_1" data-name="Layer 1" xmlns="http://www.w3.org/2000/svg" viewBox="0 0 152.15 150.8">
  <defs>
    <style>
      .cls-1 {
        fill: #3d9ed8;
      }
    </style>
  </defs>
  <g>
    <rect class="cls-1" x="87.16" y="106.29" width="1.63" height="51.14" transform="translate(56.95 287.31) rotate(-135)"/>
    <rect class="cls-1" x="81.39" y="100.52" width="1.63" height="51.14" transform="translate(51.18 273.38) rotate(-135)"/>
    <rect class="cls-1" x="75.75" y="94.88" width="1.63" height="51.14" transform="translate(45.54 259.76) rotate(-135)"/>
    <rect class="cls-1" x="70.02" y="89.15" width="1.63" height="51.14" transform="translate(39.81 245.93) rotate(-135)"/>
    <rect class="cls-1" x="64.21" y="83.34" width="1.63" height="51.14" transform="translate(34 231.89) rotate(-135)"/>
    <rect class="cls-1" x="58" y="77.01" width="1.63" height="51.14" transform="translate(27.87 216.7) rotate(-135)"/>
    <rect class="cls-1" x="63.93" y="106.13" width="1.63" height="51.14" transform="translate(-74.16 84.36) rotate(-45)"/>
    <rect class="cls-1" x="69.71" y="100.36" width="1.63" height="51.14" transform="translate(-68.39 86.75) rotate(-45)"/>
    <rect class="cls-1" x="75.35" y="94.72" width="1.63" height="51.14" transform="translate(-62.75 89.09) rotate(-45)"/>
    <rect class="cls-1" x="81.08" y="88.99" width="1.63" height="51.14" transform="translate(-57.02 91.46) rotate(-45)"/>
    <rect class="cls-1" x="86.89" y="83.17" width="1.63" height="51.14" transform="translate(-51.2 93.87) rotate(-45)"/>
    <rect class="cls-1" x="93.22" y="76.96" width="1.63" height="51.14" transform="translate(-44.96 96.52) rotate(-45)"/>
  </g>
  <g>
    <rect class="cls-1" x="132.33" y="38.25" width="1.63" height="51.14" transform="translate(272.42 14.8) rotate(135)"/>
    <rect class="cls-1" x="126.56" y="44.02" width="1.63" height="51.14" transform="translate(266.65 28.73) rotate(135)"/>
    <rect class="cls-1" x="120.91" y="49.66" width="1.63" height="51.14" transform="translate(261.01 42.35) rotate(135)"/>
    <rect class="cls-1" x="115.19" y="55.39" width="1.63" height="51.14" transform="translate(255.28 56.18) rotate(135)"/>
    <rect class="cls-1" x="109.37" y="61.2" width="1.63" height="51.14" transform="translate(249.46 70.22) rotate(135)"/>
    <rect class="cls-1" x="103.04" y="67.42" width="1.63" height="51.14" transform="translate(243.05 85.3) rotate(135)"/>
    <rect class="cls-1" x="132.16" y="61.48" width="1.63" height="51.14" transform="translate(165.46 242.63) rotate(-135)"/>
    <rect class="cls-1" x="126.39" y="55.71" width="1.63" height="51.14" transform="translate(159.69 228.7) rotate(-135)"/>
    <rect class="cls-1" x="120.75" y="50.07" width="1.63" height="51.14" transform="translate(154.05 215.08) rotate(-135)"/>
    <rect class="cls-1" x="115.02" y="44.34" width="1.63" height="51.14" transform="translate(148.32 201.25) rotate(-135)"/>
    <rect class="cls-1" x="109.21" y="38.52" width="1.63" height="51.14" transform="translate(142.51 187.21) rotate(-135)"/>
    <rect class="cls-1" x="103" y="32.19" width="1.63" height="51.14" transform="translate(136.38 172.02) rotate(-135)"/>
  </g>
  <g>
    <rect class="cls-1" x="18.33" y="61.6" width="1.63" height="51.14" transform="translate(-56.03 39.07) rotate(-45)"/>
    <rect class="cls-1" x="24.11" y="55.83" width="1.63" height="51.14" transform="translate(-50.26 41.46) rotate(-45)"/>
    <rect class="cls-1" x="29.75" y="50.19" width="1.63" height="51.14" transform="translate(-44.62 43.8) rotate(-45)"/>
    <rect class="cls-1" x="35.48" y="44.46" width="1.63" height="51.14" transform="translate(-38.89 46.17) rotate(-45)"/>
    <rect class="cls-1" x="41.29" y="38.65" width="1.63" height="51.14" transform="translate(-33.07 48.58) rotate(-45)"/>
    <rect class="cls-1" x="47.62" y="32.44" width="1.63" height="51.14" transform="translate(-26.83 51.24) rotate(-45)"/>
    <rect class="cls-1" x="18.5" y="38.37" width="1.63" height="51.14" transform="translate(50.87 5.07) rotate(45)"/>
    <rect class="cls-1" x="24.27" y="44.14" width="1.63" height="51.14" transform="translate(56.64 2.68) rotate(45)"/>
    <rect class="cls-1" x="29.91" y="49.79" width="1.63" height="51.14" transform="translate(62.28 .34) rotate(45)"/>
    <rect class="cls-1" x="35.64" y="55.52" width="1.63" height="51.14" transform="translate(68.01 -2.03) rotate(45)"/>
    <rect class="cls-1" x="41.45" y="61.33" width="1.63" height="51.14" transform="translate(73.83 -4.44) rotate(45)"/>
    <rect class="cls-1" x="47.66" y="67.66" width="1.63" height="51.14" transform="translate(80.12 -6.98) rotate(45)"/>
  </g>
  <g>
    <rect class="cls-1" x="64.05" y="-6.39" width="1.63" height="51.14" transform="translate(32.56 -40.25) rotate(45)"/>
    <rect class="cls-1" x="69.82" y="-.62" width="1.63" height="51.14" transform="translate(38.33 -42.64) rotate(45)"/>
    <rect class="cls-1" x="75.46" y="5.02" width="1.63" height="51.14" transform="translate(43.97 -44.98) rotate(45)"/>
    <rect class="cls-1" x="81.19" y="10.75" width="1.63" height="51.14" transform="translate(49.7 -47.35) rotate(45)"/>
    <rect class="cls-1" x="87.01" y="16.56" width="1.63" height="51.14" transform="translate(55.52 -49.76) rotate(45)"/>
    <rect class="cls-1" x="93.22" y="22.89" width="1.63" height="51.14" transform="translate(61.81 -52.3) rotate(45)"/>
    <rect class="cls-1" x="87.28" y="-6.23" width="1.63" height="51.14" transform="translate(164.07 -29.28) rotate(135)"/>
    <rect class="cls-1" x="81.51" y="-.46" width="1.63" height="51.14" transform="translate(158.3 -15.35) rotate(135)"/>
    <rect class="cls-1" x="75.87" y="5.18" width="1.63" height="51.14" transform="translate(152.66 -1.73) rotate(135)"/>
    <rect class="cls-1" x="70.14" y="10.91" width="1.63" height="51.14" transform="translate(146.93 12.1) rotate(135)"/>
    <rect class="cls-1" x="64.33" y="16.73" width="1.63" height="51.14" transform="translate(141.11 26.14) rotate(135)"/>
    <rect class="cls-1" x="58" y="22.94" width="1.63" height="51.14" transform="translate(134.7 41.22) rotate(135)"/>
  </g>
</svg>