<?xml version="1.0" encoding="UTF-8"?>
<svg id="Layer_1" data-name="Layer 1" xmlns="http://www.w3.org/2000/svg" viewBox="0 0 152.48 151.34">
  <defs>
    <style>
      .cls-1 {
        fill: #3d9ed8;
      }
    </style>
  </defs>
  <g>
    <rect class="cls-1" x="64.38" y="76.94" width="1.63" height="51.14" transform="translate(91.58 -16.08) rotate(45)"/>
    <rect class="cls-1" x="70.16" y="82.71" width="1.63" height="51.14" transform="translate(97.36 -18.47) rotate(45)"/>
    <rect class="cls-1" x="75.8" y="88.36" width="1.63" height="51.14" transform="translate(103 -20.81) rotate(45)"/>
    <rect class="cls-1" x="81.53" y="94.09" width="1.63" height="51.14" transform="translate(108.73 -23.18) rotate(45)"/>
    <rect class="cls-1" x="87.34" y="99.9" width="1.63" height="51.14" transform="translate(114.54 -25.59) rotate(45)"/>
    <rect class="cls-1" x="93.55" y="106.23" width="1.63" height="51.14" transform="translate(120.83 -28.13) rotate(45)"/>
    <rect class="cls-1" x="87.61" y="77.11" width="1.63" height="51.14" transform="translate(223.56 112.75) rotate(135)"/>
    <rect class="cls-1" x="81.84" y="82.88" width="1.63" height="51.14" transform="translate(217.79 126.68) rotate(135)"/>
    <rect class="cls-1" x="76.2" y="88.52" width="1.63" height="51.14" transform="translate(212.15 140.3) rotate(135)"/>
    <rect class="cls-1" x="70.47" y="94.25" width="1.63" height="51.14" transform="translate(206.42 154.13) rotate(135)"/>
    <rect class="cls-1" x="64.66" y="100.06" width="1.63" height="51.14" transform="translate(200.61 168.17) rotate(135)"/>
    <rect class="cls-1" x="58.33" y="106.27" width="1.63" height="51.14" transform="translate(194.2 183.25) rotate(135)"/>
  </g>
  <g>
    <rect class="cls-1" x="103.33" y="61.34" width="1.63" height="51.14" transform="translate(-30.95 99.1) rotate(-45)"/>
    <rect class="cls-1" x="109.1" y="55.57" width="1.63" height="51.14" transform="translate(-25.18 101.49) rotate(-45)"/>
    <rect class="cls-1" x="114.74" y="49.93" width="1.63" height="51.14" transform="translate(-19.54 103.83) rotate(-45)"/>
    <rect class="cls-1" x="120.47" y="44.2" width="1.63" height="51.14" transform="translate(-13.81 106.2) rotate(-45)"/>
    <rect class="cls-1" x="126.29" y="38.39" width="1.63" height="51.14" transform="translate(-8 108.61) rotate(-45)"/>
    <rect class="cls-1" x="132.61" y="32.18" width="1.63" height="51.14" transform="translate(-1.75 111.26) rotate(-45)"/>
    <rect class="cls-1" x="103.49" y="38.11" width="1.63" height="51.14" transform="translate(75.58 -55.11) rotate(45)"/>
    <rect class="cls-1" x="109.26" y="43.88" width="1.63" height="51.14" transform="translate(81.35 -57.5) rotate(45)"/>
    <rect class="cls-1" x="114.91" y="49.53" width="1.63" height="51.14" transform="translate(86.99 -59.83) rotate(45)"/>
    <rect class="cls-1" x="120.63" y="55.25" width="1.63" height="51.14" transform="translate(92.72 -62.21) rotate(45)"/>
    <rect class="cls-1" x="126.45" y="61.07" width="1.63" height="51.14" transform="translate(98.54 -64.62) rotate(45)"/>
    <rect class="cls-1" x="132.66" y="67.4" width="1.63" height="51.14" transform="translate(104.83 -67.15) rotate(45)"/>
  </g>
  <g>
    <rect class="cls-1" x="48" y="38.47" width="1.63" height="51.14" transform="translate(128.61 74.8) rotate(135)"/>
    <rect class="cls-1" x="42.23" y="44.24" width="1.63" height="51.14" transform="translate(122.84 88.74) rotate(135)"/>
    <rect class="cls-1" x="36.59" y="49.88" width="1.63" height="51.14" transform="translate(117.2 102.36) rotate(135)"/>
    <rect class="cls-1" x="30.86" y="55.61" width="1.63" height="51.14" transform="translate(111.47 116.19) rotate(135)"/>
    <rect class="cls-1" x="25.04" y="61.43" width="1.63" height="51.14" transform="translate(105.66 130.22) rotate(135)"/>
    <rect class="cls-1" x="18.71" y="67.64" width="1.63" height="51.14" transform="translate(99.25 145.3) rotate(135)"/>
    <rect class="cls-1" x="47.84" y="61.7" width="1.63" height="51.14" transform="translate(21.35 183.38) rotate(-135)"/>
    <rect class="cls-1" x="42.06" y="55.93" width="1.63" height="51.14" transform="translate(15.57 169.45) rotate(-135)"/>
    <rect class="cls-1" x="36.42" y="50.29" width="1.63" height="51.14" transform="translate(9.93 155.83) rotate(-135)"/>
    <rect class="cls-1" x="30.69" y="44.56" width="1.63" height="51.14" transform="translate(4.2 142) rotate(-135)"/>
    <rect class="cls-1" x="24.88" y="38.75" width="1.63" height="51.14" transform="translate(-1.61 127.96) rotate(-135)"/>
    <rect class="cls-1" x="18.67" y="32.42" width="1.63" height="51.14" transform="translate(-7.74 112.76) rotate(-135)"/>
  </g>
  <g>
    <rect class="cls-1" x="87.5" y="22.92" width="1.63" height="51.14" transform="translate(116.48 145.22) rotate(-135)"/>
    <rect class="cls-1" x="81.73" y="17.15" width="1.63" height="51.14" transform="translate(110.71 131.29) rotate(-135)"/>
    <rect class="cls-1" x="76.09" y="11.51" width="1.63" height="51.14" transform="translate(105.06 117.67) rotate(-135)"/>
    <rect class="cls-1" x="70.36" y="5.78" width="1.63" height="51.14" transform="translate(99.34 103.84) rotate(-135)"/>
    <rect class="cls-1" x="64.54" y="-.04" width="1.63" height="51.14" transform="translate(93.52 89.8) rotate(-135)"/>
    <rect class="cls-1" x="58.33" y="-6.37" width="1.63" height="51.14" transform="translate(87.39 74.6) rotate(-135)"/>
    <rect class="cls-1" x="64.27" y="22.76" width="1.63" height="51.14" transform="translate(-15.11 60.18) rotate(-45)"/>
    <rect class="cls-1" x="70.04" y="16.99" width="1.63" height="51.14" transform="translate(-9.34 62.57) rotate(-45)"/>
    <rect class="cls-1" x="75.68" y="11.34" width="1.63" height="51.14" transform="translate(-3.7 64.9) rotate(-45)"/>
    <rect class="cls-1" x="81.41" y="5.61" width="1.63" height="51.14" transform="translate(2.03 67.28) rotate(-45)"/>
    <rect class="cls-1" x="87.22" y="-.2" width="1.63" height="51.14" transform="translate(7.85 69.68) rotate(-45)"/>
    <rect class="cls-1" x="93.55" y="-6.41" width="1.63" height="51.14" transform="translate(14.09 72.34) rotate(-45)"/>
  </g>
</svg>